HIERARCHY
ROOT joint_Root
{
	OFFSET 0.0 0.0 0.0
	CHANNELS 6 Xposition Yposition Zposition Zrotation Xrotation Yrotation 
	JOINT Hips
	{
		OFFSET -0.726466 93.3139 -2.00062
		CHANNELS 6 Xposition Yposition Zposition Zrotation Xrotation Yrotation 
		JOINT Spine
		{
			OFFSET 15.7357 0.0 0.0
			CHANNELS 6 Xposition Yposition Zposition Zrotation Xrotation Yrotation 
			JOINT Chest
			{
				OFFSET 8.98455 -0.406207 0.0
				CHANNELS 6 Xposition Yposition Zposition Zrotation Xrotation Yrotation 
				JOINT Neck
				{
					OFFSET 16.3773 0.0 0.0
					CHANNELS 6 Xposition Yposition Zposition Zrotation Xrotation Yrotation 
					JOINT Head
					{
						OFFSET 6.45672 0.0 0.0
						CHANNELS 6 Xposition Yposition Zposition Zrotation Xrotation Yrotation 
						End Site
						{
							OFFSET 0.0 0.0 0.0
						}
					}
				}
				JOINT Shoulder_L
				{
					OFFSET 12.9942 -0.242716 4.98039
					CHANNELS 6 Xposition Yposition Zposition Zrotation Xrotation Yrotation 
					JOINT UpperArm_L
					{
						OFFSET 5.34809 0.0 0.0
						CHANNELS 6 Xposition Yposition Zposition Zrotation Xrotation Yrotation 
						JOINT LowerArm_L
						{
							OFFSET 24.3286 1.87007e-05 0.0
							CHANNELS 6 Xposition Yposition Zposition Zrotation Xrotation Yrotation 
							JOINT Hand_L
							{
								OFFSET 22.2916 0.0 0.0
								CHANNELS 6 Xposition Yposition Zposition Zrotation Xrotation Yrotation 
								End Site
								{
									OFFSET 0.0 0.0 0.0
								}
							}
						}
					}
				}
				JOINT Shoulder_R
				{
					OFFSET 12.9945 -0.242716 -4.98039
					CHANNELS 6 Xposition Yposition Zposition Zrotation Xrotation Yrotation 
					JOINT UpperArm_R
					{
						OFFSET -5.34813 0.0 0.0
						CHANNELS 6 Xposition Yposition Zposition Zrotation Xrotation Yrotation 
						JOINT LowerArm_R
						{
							OFFSET -24.3289 0.000322201 0.0
							CHANNELS 6 Xposition Yposition Zposition Zrotation Xrotation Yrotation 
							JOINT Hand_R
							{
								OFFSET -22.2915 -0.000108084 0.0
								CHANNELS 6 Xposition Yposition Zposition Zrotation Xrotation Yrotation 
								End Site
								{
									OFFSET 0.0 0.0 0.0
								}
							}
						}
					}
				}
			}
		}
		JOINT UpperLeg_L
		{
			OFFSET -2.19248 -6.46944 0.0
			CHANNELS 6 Xposition Yposition Zposition Zrotation Xrotation Yrotation 
			JOINT LowerLeg_L
			{
				OFFSET 39.0811 0.0 -1.23785e-05
				CHANNELS 6 Xposition Yposition Zposition Zrotation Xrotation Yrotation 
				JOINT Foot_L
				{
					OFFSET 40.9854 0.0 -1.26872e-05
					CHANNELS 6 Xposition Yposition Zposition Zrotation Xrotation Yrotation 
					JOINT Toes_L
					{
						OFFSET 11.7543 0.0 0.0
						CHANNELS 6 Xposition Yposition Zposition Zrotation Xrotation Yrotation 
						End Site
						{
							OFFSET 0.0 0.0 0.0
						}
					}
				}
			}
		}
		JOINT UpperLeg_R
		{
			OFFSET -2.19251 6.46944 0.0
			CHANNELS 6 Xposition Yposition Zposition Zrotation Xrotation Yrotation 
			JOINT LowerLeg_R
			{
				OFFSET -39.0811 -0.00228153 -0.0401928
				CHANNELS 6 Xposition Yposition Zposition Zrotation Xrotation Yrotation 
				JOINT Foot_R
				{
					OFFSET -40.9854 0.0 0.0
					CHANNELS 6 Xposition Yposition Zposition Zrotation Xrotation Yrotation 
					JOINT Toes_R
					{
						OFFSET -11.7543 0.0 0.0
						CHANNELS 6 Xposition Yposition Zposition Zrotation Xrotation Yrotation 
						End Site
						{
							OFFSET 0.0 0.0 0.0
						}
					}
				}
			}
		}
	}
}
MOTION
Frames:	7
Frame Time:	0.0333333
0.000000 0.000000 0.000000 0.000000 0.000000 -0.000000 -1.320480 92.305800 -2.731060 87.658300 -0.547852 2.928130 15.735700 0.000005 -0.000001 85.254000 87.389000 -84.374600 8.984550 -0.406207 -0.000000 -2.557390 -0.511116 1.747310 16.377300 -0.000001 -0.000001 -4.424230 -3.143220 2.447270 6.456720 -0.000001 -0.000000 -2.696480 -1.864400 -0.767070 12.994200 -0.242716 4.980390 -85.397500 -10.606900 -66.377900 5.348090 -0.000007 -0.000001 -56.567700 -52.677000 -88.578700 24.328600 0.000019 0.000005 5.662470 2.251630 -68.384300 22.291600 -0.000001 0.000005 17.438000 5.591320 -10.836900 12.994500 -0.242716 -4.980390 92.103300 -4.737480 -66.026000 -5.348130 -0.000001 -0.000004 -46.264600 -51.347500 -97.659500 -24.328900 0.000322 -0.000009 6.331900 4.675460 -53.705300 -22.291500 -0.000108 -0.000004 19.873600 5.559720 -9.173680 -2.192480 -6.469440 -0.000000 -169.222000 -14.596900 -3.062520 39.081100 -0.000007 -0.000012 -0.155039 0.422214 20.163700 40.985400 -0.000006 -0.000013 -5.816270 3.737310 -62.530900 11.754300 -0.000000 0.000003 -0.000023 -0.000287 -16.588800 -2.192510 6.469440 -0.000001 175.765000 19.729600 178.296000 -39.081100 -0.002282 -0.040193 0.016695 -0.038927 18.958500 -40.985400 0.000008 0.000006 -0.737134 1.380760 -62.796400 -11.754300 -0.000006 -0.000006 -0.007285 -0.082096 -19.915400
0.000000 0.000000 0.000000 0.000000 0.000000 -0.000000 -1.310250 92.316600 -2.697270 87.685000 -0.566620 2.958340 15.735700 0.000005 -0.000001 84.907900 87.355100 -84.032600 8.984550 -0.406207 -0.000000 -2.492300 -0.547686 1.738750 16.377300 -0.000001 -0.000001 -4.354810 -3.124900 2.477580 6.456720 -0.000001 -0.000000 -2.647790 -1.849630 -0.814718 12.994200 -0.242716 4.980390 -85.399100 -10.567100 -66.307000 5.348090 -0.000007 -0.000001 -56.551900 -52.682500 -88.470900 24.328600 0.000019 0.000005 5.818500 2.312320 -68.399700 22.291600 -0.000001 0.000005 17.490700 5.591080 -10.823100 12.994500 -0.242716 -4.980390 92.089400 -4.693850 -65.970900 -5.348130 -0.000001 -0.000004 -45.824900 -51.457700 -97.383100 -24.328900 0.000322 -0.000009 6.507670 4.811800 -53.676000 -22.291500 -0.000108 -0.000004 19.775300 5.558780 -9.127630 -2.192480 -6.469440 -0.000000 -169.244000 -14.646100 -2.947850 39.081100 -0.000007 -0.000012 -0.152718 0.418413 20.051900 40.985400 -0.000006 -0.000013 -5.810690 3.738180 -62.496100 11.754300 -0.000000 0.000003 -0.000018 -0.000233 -16.586700 -2.192510 6.469440 -0.000001 175.737000 19.747400 178.360000 -39.081100 -0.002282 -0.040193 0.021637 -0.053381 18.935300 -40.985400 0.000008 0.000006 -0.509466 1.381090 -62.818400 -11.754300 -0.000006 -0.000006 -0.007309 -0.082299 -19.923700
0.000000 0.000000 0.000000 0.000000 0.000000 -0.000000 -1.312330 92.303300 -2.668480 87.682400 -0.600036 2.982140 15.735700 0.000005 -0.000001 84.901300 87.323100 -84.024400 8.984550 -0.406207 -0.000000 -2.428640 -0.553638 1.741890 16.377300 -0.000001 -0.000001 -4.217360 -3.129480 2.434970 6.456720 -0.000001 -0.000000 -2.676800 -1.893800 -0.769483 12.994200 -0.242716 4.980390 -85.414000 -10.533900 -66.310200 5.348090 -0.000007 -0.000001 -56.465900 -52.767900 -88.324500 24.328600 0.000019 0.000005 5.692580 2.261880 -68.399900 22.291600 -0.000001 0.000005 17.338800 5.592150 -10.884000 12.994500 -0.242716 -4.980390 92.096400 -4.688280 -65.873800 -5.348130 -0.000001 -0.000004 -45.390800 -51.553500 -97.046900 -24.328900 0.000322 -0.000009 6.402400 4.733630 -53.673200 -22.291500 -0.000108 -0.000004 19.886900 5.559920 -9.183250 -2.192480 -6.469440 -0.000000 -169.223000 -14.618300 -2.931610 39.081100 -0.000007 -0.000012 -0.154017 0.420189 20.130200 40.985400 -0.000006 -0.000013 -5.819920 3.740910 -62.564600 11.754300 -0.000000 0.000003 -0.000031 -0.000372 -16.592100 -2.192510 6.469440 -0.000001 175.711000 19.665400 178.391000 -39.081100 -0.002282 -0.040193 0.017643 -0.041664 18.967800 -40.985400 0.000008 0.000006 -0.715386 1.387240 -62.845100 -11.754300 -0.000006 -0.000006 -0.007221 -0.081548 -19.893100
0.000000 0.000000 0.000000 0.000000 0.000000 -0.000000 -1.313770 92.302500 -2.644470 87.659600 -0.623502 2.964070 15.735700 0.000005 -0.000001 84.604400 87.307100 -83.724100 8.984550 -0.406207 -0.000000 -2.399060 -0.584339 1.748410 16.377300 -0.000001 -0.000001 -4.124190 -3.152140 2.452240 6.456720 -0.000001 -0.000000 -2.584830 -1.903520 -0.770588 12.994200 -0.242716 4.980390 -85.394800 -10.556800 -66.267100 5.348090 -0.000007 -0.000001 -56.464500 -52.839000 -88.210500 24.328600 0.000019 0.000005 5.695790 2.257830 -68.446200 22.291600 -0.000001 0.000005 17.308000 5.593410 -10.956200 12.994500 -0.242716 -4.980390 92.089900 -4.668310 -65.849900 -5.348130 -0.000001 -0.000004 -45.150100 -51.611500 -96.836500 -24.328900 0.000322 -0.000009 6.456350 4.767070 -53.712500 -22.291500 -0.000108 -0.000004 19.851000 5.558240 -9.101160 -2.192480 -6.469440 -0.000000 -169.203000 -14.678900 -2.947510 39.081100 -0.000007 -0.000012 -0.155108 0.422490 20.159800 40.985400 -0.000006 -0.000013 -5.815470 3.736550 -62.587700 11.754300 -0.000000 0.000003 -0.000031 -0.000376 -16.592200 -2.192510 6.469440 -0.000001 175.749000 19.676900 178.382000 -39.081100 -0.002282 -0.040193 0.022199 -0.054889 18.977400 -40.985400 0.000008 0.000006 -0.590990 1.393120 -62.872500 -11.754300 -0.000006 -0.000006 -0.007731 -0.085823 -20.067600
0.000000 0.000000 0.000000 0.000000 0.000000 -0.000000 -1.317090 92.306100 -2.619200 87.645900 -0.659057 2.936200 15.735700 0.000005 -0.000001 84.543500 87.293800 -83.653200 8.984550 -0.406207 -0.000000 -2.373010 -0.593242 1.768140 16.377300 -0.000001 -0.000001 -3.993270 -3.124680 2.431570 6.456720 -0.000001 -0.000000 -2.537600 -1.913410 -0.798019 12.994200 -0.242716 4.980390 -85.390100 -10.539700 -66.211200 5.348090 -0.000007 -0.000001 -56.510700 -52.866900 -88.119200 24.328600 0.000019 0.000005 5.669410 2.237560 -68.531000 22.291600 -0.000001 0.000005 17.305900 5.593210 -10.944500 12.994500 -0.242716 -4.980390 92.084600 -4.644950 -65.797000 -5.348130 -0.000001 -0.000004 -44.979000 -51.652700 -96.716300 -24.328900 0.000322 -0.000009 6.476280 4.778810 -53.730400 -22.291500 -0.000108 -0.000004 20.028200 5.559060 -9.141130 -2.192480 -6.469440 -0.000000 -169.179000 -14.707200 -2.923240 39.081100 -0.000007 -0.000012 -0.154289 0.421309 20.113500 40.985400 -0.000006 -0.000013 -5.828440 3.745030 -62.584800 11.754300 -0.000000 0.000003 -0.000029 -0.000351 -16.591300 -2.192510 6.469440 -0.000001 175.779000 19.730100 178.370000 -39.081100 -0.002282 -0.040193 0.023143 -0.057692 18.959400 -40.985400 0.000008 0.000006 -0.487871 1.437490 -62.877100 -11.754300 -0.000006 -0.000006 -0.007274 -0.081995 -19.911300
0.000000 0.000000 0.000000 0.000000 0.000000 -0.000000 -1.327990 92.300300 -2.588270 87.674100 -0.723656 2.945170 15.735700 0.000005 -0.000001 84.672800 87.267800 -83.793700 8.984550 -0.406207 -0.000000 -2.320290 -0.584531 1.746320 16.377300 -0.000001 -0.000001 -3.878280 -3.107880 2.415360 6.456720 -0.000001 -0.000000 -2.437560 -1.881170 -0.791398 12.994200 -0.242716 4.980390 -85.386000 -10.525900 -66.165100 5.348090 -0.000007 -0.000001 -56.488400 -52.906200 -87.949400 24.328600 0.000019 0.000005 5.487290 2.150700 -68.661700 22.291600 -0.000001 0.000005 17.325300 5.592530 -10.905400 12.994500 -0.242716 -4.980390 92.072600 -4.609070 -65.755200 -5.348130 -0.000001 -0.000004 -44.978800 -51.626600 -96.639100 -24.328900 0.000322 -0.000009 6.356190 4.675480 -53.810600 -22.291500 -0.000108 -0.000004 20.055800 5.557910 -9.085160 -2.192480 -6.469440 -0.000000 -169.192000 -14.757300 -2.867850 39.081100 -0.000007 -0.000012 -0.152565 0.416696 20.109400 40.985400 -0.000006 -0.000013 -5.839780 3.726950 -62.612900 11.754300 -0.000000 0.000003 -0.000022 -0.000279 -16.588500 -2.192510 6.469440 -0.000001 175.729000 19.654800 178.396000 -39.081100 -0.002282 -0.040193 0.019145 -0.046031 18.968600 -40.985400 0.000008 0.000006 -0.655312 1.462970 -62.894300 -11.754300 -0.000006 -0.000006 -0.007244 -0.081745 -19.901100
0.000000 0.000000 0.000000 0.000000 0.000000 -0.000000 -1.331250 92.297500 -2.561380 87.631700 -0.776282 2.897060 15.735700 0.000005 -0.000001 84.858000 87.259400 -83.965900 8.984550 -0.406207 -0.000000 -2.301810 -0.569468 1.772610 16.377300 -0.000001 -0.000001 -3.720470 -3.105930 2.415750 6.456720 -0.000001 -0.000000 -2.361540 -1.847200 -0.836613 12.994200 -0.242716 4.980390 -85.381400 -10.526200 -66.144600 5.348090 -0.000007 -0.000001 -56.489300 -52.932300 -87.668600 24.328600 0.000019 0.000005 5.587830 2.162870 -68.905900 22.291600 -0.000001 0.000005 17.271100 5.590220 -10.774100 12.994500 -0.242716 -4.980390 92.066200 -4.584950 -65.709200 -5.348130 -0.000001 -0.000004 -44.923900 -51.589900 -96.413200 -24.328900 0.000322 -0.000009 6.393930 4.680710 -53.943100 -22.291500 -0.000108 -0.000004 20.410500 5.558710 -9.124070 -2.192480 -6.469440 -0.000000 -169.145000 -14.754000 -2.896820 39.081100 -0.000007 -0.000012 -0.155451 0.423989 20.135100 40.985400 -0.000006 -0.000013 -5.856430 3.710750 -62.653100 11.754300 -0.000000 0.000003 -0.000029 -0.000355 -16.591400 -2.192510 6.469440 -0.000001 175.787000 19.606400 178.371000 -39.081100 -0.002282 -0.040193 0.020533 -0.050129 18.947600 -40.985400 0.000008 0.000006 -0.592991 1.508400 -62.907500 -11.754300 -0.000006 -0.000006 -0.007467 -0.083626 -19.977900
